HIERARCHY
ROOT hip
{
  OFFSET 0 -7 0
  CHANNELS 6 Xposition Yposition Zposition Zrotation Xrotation Yrotation
  JOINT abdomen
  {
    OFFSET 0 -1.186 -1.50178
    CHANNELS 6 Xposition Yposition Zposition Zrotation Xrotation Yrotation
    JOINT abdomen2
    {
      OFFSET 0 9.964 0.21338
      CHANNELS 6 Xposition Yposition Zposition Zrotation Xrotation Yrotation
      JOINT chest
      {
        OFFSET 0 13.134 -3.25729
        CHANNELS 6 Xposition Yposition Zposition Zrotation Xrotation Yrotation
        JOINT neck
        {
          OFFSET 0 21.686 -1.69049
          CHANNELS 6 Xposition Yposition Zposition Zrotation Xrotation Yrotation
          JOINT head
          {
            OFFSET 0 11.838 -0.12368
            CHANNELS 6 Xposition Yposition Zposition Zrotation Xrotation Yrotation
            End Site
            {
              OFFSET 0 6.717 2.38717
            }
          }
        }
        JOINT lCollar
        {
          OFFSET 1.70688 20.075 5.0056
          CHANNELS 6 Xposition Yposition Zposition Zrotation Xrotation Yrotation
          JOINT lShldr
          {
            OFFSET 13.6458 -0.047012 -4.84902
            CHANNELS 6 Xposition Yposition Zposition Zrotation Xrotation Yrotation
            JOINT lForeArm
            {
              OFFSET 28.3255 -0.975903 2.28883
              CHANNELS 6 Xposition Yposition Zposition Zrotation Xrotation Yrotation
              JOINT lHand
              {
                OFFSET 22.1583 -0.530035 10.8316
                CHANNELS 6 Xposition Yposition Zposition Zrotation Xrotation Yrotation
                JOINT lThumb1
                {
                  OFFSET 0.785995 0.111999 2.58168
                  CHANNELS 6 Xposition Yposition Zposition Zrotation Xrotation Yrotation
                  JOINT lThumb2
                  {
                    OFFSET 0.3601 -0.878005 4.2331
                    CHANNELS 6 Xposition Yposition Zposition Zrotation Xrotation Yrotation
                    End Site
                    {
                      OFFSET 1.81271 -1.21601 2.2227
                    }
                  }
                }
                JOINT lCarpal1
                {
                  OFFSET 0.9571 1.114 1.76948
                  CHANNELS 6 Xposition Yposition Zposition Zrotation Xrotation Yrotation
                  JOINT lIndex1
                  {
                    OFFSET 4.1246 0.487 4.1451
                    CHANNELS 6 Xposition Yposition Zposition Zrotation Xrotation Yrotation
                    JOINT lIndex2
                    {
                      OFFSET 3.40521 -1.45401 2.7682
                      CHANNELS 6 Xposition Yposition Zposition Zrotation Xrotation Yrotation
                      End Site
                      {
                        OFFSET 1.4531 -1.795 1.2713
                      }
                    }
                  }
                  JOINT lMid1
                  {
                    OFFSET 5.6954 0.209991 2.1184
                    CHANNELS 6 Xposition Yposition Zposition Zrotation Xrotation Yrotation
                    JOINT lMid2
                    {
                      OFFSET 3.9766 -1.53999 2.3863
                      CHANNELS 6 Xposition Yposition Zposition Zrotation Xrotation Yrotation
                      End Site
                      {
                        OFFSET 1.4042 -1.926 1.125
                      }
                    }
                  }
                }
                JOINT lCarpal2
                {
                  OFFSET 2.09559 0.65999 -0.38939
                  CHANNELS 6 Xposition Yposition Zposition Zrotation Xrotation Yrotation
                  JOINT lRing1
                  {
                    OFFSET 5.0395 -0.089997 2.49707
                    CHANNELS 6 Xposition Yposition Zposition Zrotation Xrotation Yrotation
                    JOINT lRing2
                    {
                      OFFSET 3.7921 -1.552 1.4806
                      CHANNELS 6 Xposition Yposition Zposition Zrotation Xrotation Yrotation
                      End Site
                      {
                        OFFSET 1.4655 -1.808 0.9609
                      }
                    }
                  }
                  JOINT lPinky1
                  {
                    OFFSET 4.9141 -1.269 0.35915
                    CHANNELS 6 Xposition Yposition Zposition Zrotation Xrotation Yrotation
                    JOINT lPinky2
                    {
                      OFFSET 3.1477 -1.685 0.84623
                      CHANNELS 6 Xposition Yposition Zposition Zrotation Xrotation Yrotation
                      End Site
                      {
                        OFFSET 0.805505 -1.58499 0.79549
                      }
                    }
                  }
                }
              }
            }
          }
        }
        JOINT rCollar
        {
          OFFSET -1.70688 20.075 5.0056
          CHANNELS 6 Xposition Yposition Zposition Zrotation Xrotation Yrotation
          JOINT rShldr
          {
            OFFSET -13.6458 -0.047012 -4.84902
            CHANNELS 6 Xposition Yposition Zposition Zrotation Xrotation Yrotation
            JOINT rForeArm
            {
              OFFSET -28.3255 -0.975903 2.28883
              CHANNELS 6 Xposition Yposition Zposition Zrotation Xrotation Yrotation
              JOINT rHand
              {
                OFFSET -22.1583 -0.530036 10.8316
                CHANNELS 6 Xposition Yposition Zposition Zrotation Xrotation Yrotation
                JOINT rThumb1
                {
                  OFFSET -0.785995 0.111999 2.58168
                  CHANNELS 6 Xposition Yposition Zposition Zrotation Xrotation Yrotation
                  JOINT rThumb2
                  {
                    OFFSET -0.3601 -0.878005 4.2331
                    CHANNELS 6 Xposition Yposition Zposition Zrotation Xrotation Yrotation
                    End Site
                    {
                      OFFSET -1.81271 -1.21601 2.2227
                    }
                  }
                }
                JOINT rCarpal1
                {
                  OFFSET -0.9571 1.114 1.76948
                  CHANNELS 6 Xposition Yposition Zposition Zrotation Xrotation Yrotation
                  JOINT rIndex1
                  {
                    OFFSET -4.1246 0.487 4.1451
                    CHANNELS 6 Xposition Yposition Zposition Zrotation Xrotation Yrotation
                    JOINT rIndex2
                    {
                      OFFSET -3.40521 -1.45401 2.7682
                      CHANNELS 6 Xposition Yposition Zposition Zrotation Xrotation Yrotation
                      End Site
                      {
                        OFFSET -1.4531 -1.795 1.2713
                      }
                    }
                  }
                  JOINT rMid1
                  {
                    OFFSET -5.6954 0.209991 2.1184
                    CHANNELS 6 Xposition Yposition Zposition Zrotation Xrotation Yrotation
                    JOINT rMid2
                    {
                      OFFSET -3.9766 -1.53999 2.3863
                      CHANNELS 6 Xposition Yposition Zposition Zrotation Xrotation Yrotation
                      End Site
                      {
                        OFFSET -1.4042 -1.926 1.125
                      }
                    }
                  }
                }
                JOINT rCarpal2
                {
                  OFFSET -2.09559 0.65999 -0.38939
                  CHANNELS 6 Xposition Yposition Zposition Zrotation Xrotation Yrotation
                  JOINT rRing1
                  {
                    OFFSET -5.0395 -0.089997 2.49707
                    CHANNELS 6 Xposition Yposition Zposition Zrotation Xrotation Yrotation
                    JOINT rRing2
                    {
                      OFFSET -3.7921 -1.552 1.4806
                      CHANNELS 6 Xposition Yposition Zposition Zrotation Xrotation Yrotation
                      End Site
                      {
                        OFFSET -1.4655 -1.808 0.9609
                      }
                    }
                  }
                  JOINT rPinky1
                  {
                    OFFSET -4.9141 -1.269 0.35915
                    CHANNELS 6 Xposition Yposition Zposition Zrotation Xrotation Yrotation
                    JOINT rPinky2
                    {
                      OFFSET -3.1477 -1.685 0.84623
                      CHANNELS 6 Xposition Yposition Zposition Zrotation Xrotation Yrotation
                      End Site
                      {
                        OFFSET -0.805505 -1.58499 0.79549
                      }
                    }
                  }
                }
              }
            }
          }
        }
      }
    }
  }
  JOINT lThigh
  {
    OFFSET 8.367 -8.2066 0.59823
    CHANNELS 6 Xposition Yposition Zposition Zrotation Xrotation Yrotation
    JOINT lShin
    {
      OFFSET 2.19232 -43.463 -0.493181
      CHANNELS 6 Xposition Yposition Zposition Zrotation Xrotation Yrotation
      JOINT lFoot
      {
        OFFSET 0.733257 -45.8593 -2.64513
        CHANNELS 6 Xposition Yposition Zposition Zrotation Xrotation Yrotation
        End Site
        {
          OFFSET 2.6618 -4.26993 12.3931
        }
      }
    }
  }
  JOINT rThigh
  {
    OFFSET -8.367 -8.2066 0.59823
    CHANNELS 6 Xposition Yposition Zposition Zrotation Xrotation Yrotation
    JOINT rShin
    {
      OFFSET -2.19233 -43.463 -0.493108
      CHANNELS 6 Xposition Yposition Zposition Zrotation Xrotation Yrotation
      JOINT rFoot
      {
        OFFSET -0.733256 -45.8593 -2.64514
        CHANNELS 6 Xposition Yposition Zposition Zrotation Xrotation Yrotation
        End Site
        {
          OFFSET -2.6618 -4.26993 12.3931
        }
      }
    }
  }
}
MOTION
Frames:	4
Frame Time:	0.0333333
0 103.724 2.51504 0 0 -0 0 -1.186 -1.50178 0 0 -0 0 9.964 0.21338 0 0 -0 0 13.134 -3.25729 0 0 -0 0 21.686 -1.69049 0 0 -0 0 11.838 -0.12368 0 0 -0 1.70688 20.075 5.0056 0 0 -0 13.6458 -0.047012 -4.84902 0.00127061 0.00076837 5.45741 28.3255 -0.975903 2.28883 -0.0012455 -0.000652875 21.1674 22.1583 -0.530035 10.8316 -8.30021e-005 4.16094e-005 0.000111497 0.785995 0.111999 2.58168 -1.44635e-027 0 -0 0.3601 -0.878005 4.2331 1.44635e-027 0 -3.18055e-015 0.9571 1.114 1.76948 -1.44635e-027 0 -0 4.1246 0.487 4.1451 1.44635e-027 0 -3.18055e-015 3.40521 -1.45401 2.7682 2.8927e-027 2.8927e-027 -0 5.6954 0.209991 2.1184 1.44635e-027 0 -3.18055e-015 3.9766 -1.53999 2.3863 2.8927e-027 2.8927e-027 -0 2.09559 0.65999 -0.38939 -1.44635e-027 0 -0 5.0395 -0.089997 2.49707 1.44635e-027 0 -3.18055e-015 3.7921 -1.552 1.4806 2.8927e-027 2.8927e-027 -0 4.9141 -1.269 0.35915 1.44635e-027 0 -3.18055e-015 3.1477 -1.685 0.84623 2.8927e-027 2.8927e-027 -0 -1.70688 20.075 5.0056 0 0 -0 -13.6458 -0.047012 -4.84902 -0.00127695 0.000812872 -6.04358 -28.3255 -0.975903 2.28883 0.00127231 -0.000687016 -20.3599 -22.1583 -0.530036 10.8316 7.3373e-005 4.12064e-005 -0.000103872 -0.785995 0.111999 2.58168 -4.33905e-027 -2.8927e-027 -0 -0.3601 -0.878005 4.2331 -1.15708e-026 -1.44635e-027 -0 -0.9571 1.114 1.76948 -4.33905e-027 -2.8927e-027 -0 -4.1246 0.487 4.1451 -1.15708e-026 -1.44635e-027 -0 -3.40521 -1.45401 2.7682 1.2294e-026 -1.44635e-027 -0 -5.6954 0.209991 2.1184 -1.15708e-026 -1.44635e-027 -0 -3.9766 -1.53999 2.3863 1.2294e-026 -1.44635e-027 -0 -2.09559 0.65999 -0.38939 -4.33905e-027 -2.8927e-027 -0 -5.0395 -0.089997 2.49707 -1.15708e-026 -1.44635e-027 -0 -3.7921 -1.552 1.4806 1.2294e-026 -1.44635e-027 -0 -4.9141 -1.269 0.35915 -1.15708e-026 -1.44635e-027 -0 -3.1477 -1.685 0.84623 1.2294e-026 -1.44635e-027 -0 8.367 -8.2066 0.59823 -4.69663 -0.839373 0.129466 2.19232 -43.463 -0.493181 0.00525462 1.23001 0.0980494 0.733257 -45.8593 -2.64513 4.69269 -0.407952 -0.194854 -8.367 -8.2066 0.59823 4.69662 -0.839048 -0.129486 -2.19233 -43.463 -0.493108 -0.00521441 1.22918 -0.098037 -0.733256 -45.8593 -2.64514 -4.69271 -0.407451 0.194902 
0.0113973 104.821 3.121 2.33918 0.94334 3.3141 0 -1.186 -1.50178 -0.651808 -0.715698 0.16491 8.88179e-016 9.964 0.21338 -1.3017 -1.43322 0.321705 -5.55112e-017 13.134 -3.25729 -1.3017 -1.43322 0.321703 4.44089e-016 21.686 -1.69049 3.24208 13.4366 0.267224 0 11.838 -0.12368 -3.02458 -14.4343 0.261831 1.70688 20.075 5.0056 1.57839 -0.148967 -1.49841 13.6458 -0.047012 -4.84902 6.48623 -2.2455 12.8857 28.3255 -0.975903 2.28883 -3.63403 0.895005 5.35831 22.1583 -0.530035 10.8316 4.81268 0.654703 0.405994 0.785995 0.111999 2.58168 2.5842e-015 7.95139e-016 -0 0.3601 -0.878005 4.2331 1.78906e-015 0 -0 0.9571 1.114 1.76948 2.5842e-015 7.95139e-016 -0 4.1246 0.487 4.1451 1.78906e-015 0 -0 3.40521 -1.45401 2.7682 5.96354e-016 0 -0 5.6954 0.209991 2.1184 1.78906e-015 0 -0 3.9766 -1.53999 2.3863 5.96354e-016 0 -0 2.09559 0.65999 -0.38939 2.5842e-015 7.95139e-016 -0 5.0395 -0.089997 2.49707 1.78906e-015 0 -0 3.7921 -1.552 1.4806 5.96354e-016 0 -0 4.9141 -1.269 0.35915 1.78906e-015 0 -0 3.1477 -1.685 0.84623 5.96354e-016 0 -0 -1.70688 20.075 5.0056 2.59674 -1.08881 -7.23411 -13.6458 -0.047012 -4.84902 -1.11628 -4.42986 -8.24841 -28.3255 -0.975903 2.28883 1.37917 0.248617 -11.4872 -22.1583 -0.530036 10.8316 -3.80329 -3.55326 -1.06285 -0.785995 0.111999 2.58168 7.95139e-016 0 -6.36111e-015 -0.3601 -0.878005 4.2331 0 0 -3.18055e-015 -0.9571 1.114 1.76948 7.95139e-016 0 -6.36111e-015 -4.1246 0.487 4.1451 0 0 -3.18055e-015 -3.40521 -1.45401 2.7682 0 0 -3.18055e-015 -5.6954 0.209991 2.1184 0 0 -3.18055e-015 -3.9766 -1.53999 2.3863 0 0 -3.18055e-015 -2.09559 0.65999 -0.38939 7.95139e-016 0 -6.36111e-015 -5.0395 -0.089997 2.49707 0 0 -3.18055e-015 -3.7921 -1.552 1.4806 0 0 -3.18055e-015 -4.9141 -1.269 0.35915 0 0 -3.18055e-015 -3.1477 -1.685 0.84623 0 0 -3.18055e-015 8.367 -8.2066 0.59823 -5.45279 -4.28574 0.580503 2.19232 -43.463 -0.493181 4.89271 13.6754 -10.0478 0.733257 -45.8593 -2.64513 0.864738 -14.4313 4.63798 -8.367 -8.2066 0.59823 -0.986844 0.889931 4.13639 -2.19233 -43.463 -0.493108 -0.670922 10.9421 17.3478 -0.733256 -45.8593 -2.64514 -12.7046 -5.77055 -21.7571 
-0.10176 104.83 3.08471 2.33968 0.8682 3.28658 0 -1.186 -1.50178 -0.658306 -0.692529 0.150457 -4.44089e-016 9.964 0.21338 -1.31493 -1.38673 0.292974 0 13.134 -3.25729 -1.31494 -1.38674 0.292975 -4.44089e-016 21.686 -1.69049 3.36241 13.0468 0.284061 -1.77636e-015 11.838 -0.12368 -3.12396 -13.9975 0.283675 1.70688 20.075 5.0056 1.59558 -0.222609 -1.572 13.6458 -0.047012 -4.84902 6.15635 -2.01948 12.8303 28.3255 -0.975903 2.28883 -3.35205 0.791656 5.1854 22.1583 -0.530035 10.8316 3.54318 0.608781 -0.0261722 0.785995 0.111999 2.58168 9.93923e-016 7.95139e-016 -3.18055e-015 0.3601 -0.878005 4.2331 3.97569e-016 1.19271e-015 -3.18055e-015 0.9571 1.114 1.76948 9.93923e-016 7.95139e-016 -3.18055e-015 4.1246 0.487 4.1451 3.97569e-016 1.19271e-015 -3.18055e-015 3.40521 -1.45401 2.7682 5.96354e-016 3.97569e-016 -0 5.6954 0.209991 2.1184 3.97569e-016 1.19271e-015 -3.18055e-015 3.9766 -1.53999 2.3863 5.96354e-016 3.97569e-016 -0 2.09559 0.65999 -0.38939 9.93923e-016 7.95139e-016 -3.18055e-015 5.0395 -0.089997 2.49707 3.97569e-016 1.19271e-015 -3.18055e-015 3.7921 -1.552 1.4806 5.96354e-016 3.97569e-016 -0 4.9141 -1.269 0.35915 3.97569e-016 1.19271e-015 -3.18055e-015 3.1477 -1.685 0.84623 5.96354e-016 3.97569e-016 -0 -1.70688 20.075 5.0056 2.62651 -1.3016 -7.21878 -13.6458 -0.047012 -4.84902 -0.89893 -4.0829 -8.15155 -28.3255 -0.975903 2.28883 1.28574 0.240783 -11.217 -22.1583 -0.530036 10.8316 -4.3303 -3.38064 -1.06361 -0.785995 0.111999 2.58168 0 0 -0 -0.3601 -0.878005 4.2331 -7.95139e-016 0 -3.18055e-015 -0.9571 1.114 1.76948 0 0 -0 -4.1246 0.487 4.1451 -7.95139e-016 0 -3.18055e-015 -3.40521 -1.45401 2.7682 7.95139e-016 0 3.18055e-015 -5.6954 0.209991 2.1184 -7.95139e-016 0 -3.18055e-015 -3.9766 -1.53999 2.3863 7.95139e-016 0 3.18055e-015 -2.09559 0.65999 -0.38939 0 0 -0 -5.0395 -0.089997 2.49707 -7.95139e-016 0 -3.18055e-015 -3.7921 -1.552 1.4806 7.95139e-016 0 3.18055e-015 -4.9141 -1.269 0.35915 -7.95139e-016 0 -3.18055e-015 -3.1477 -1.685 0.84623 7.95139e-016 0 3.18055e-015 8.367 -8.2066 0.59823 -5.3372 -4.20681 0.729431 2.19232 -43.463 -0.493181 4.88128 13.5888 -10.0243 0.733257 -45.8593 -2.64513 0.711398 -14.3774 4.48274 -8.367 -8.2066 0.59823 -0.909268 0.834014 4.10902 -2.19233 -43.463 -0.493108 -0.663684 11.1118 17.4661 -0.733256 -45.8593 -2.64514 -12.7883 -5.75889 -21.8083 
-0.242685 104.833 3.04754 2.32111 0.79388 3.26268 -8.88179e-016 -1.186 -1.50178 -0.649221 -0.660943 0.135814 0 9.964 0.21338 -1.29701 -1.32338 0.264153 -1.11022e-016 13.134 -3.25729 -1.297 -1.32337 0.26415 4.44089e-016 21.686 -1.69049 2.96972 12.9874 0.241559 0 11.838 -0.12368 -2.63572 -14.1417 0.246473 1.70688 20.075 5.0056 1.59485 -0.243981 -1.7734 13.6458 -0.047012 -4.84902 5.53798 -1.65392 12.8809 28.3255 -0.975903 2.28883 -3.15608 0.737559 4.96714 22.1583 -0.530035 10.8316 3.78335 0.226202 -0.0788232 0.785995 0.111999 2.58168 5.96354e-016 7.95139e-016 6.36111e-015 0.3601 -0.878005 4.2331 9.93923e-016 3.97569e-016 -3.18055e-015 0.9571 1.114 1.76948 5.96354e-016 7.95139e-016 6.36111e-015 4.1246 0.487 4.1451 9.93923e-016 3.97569e-016 -3.18055e-015 3.40521 -1.45401 2.7682 3.97569e-016 0 -3.18055e-015 5.6954 0.209991 2.1184 9.93923e-016 3.97569e-016 -3.18055e-015 3.9766 -1.53999 2.3863 3.97569e-016 0 -3.18055e-015 2.09559 0.65999 -0.38939 5.96354e-016 7.95139e-016 6.36111e-015 5.0395 -0.089997 2.49707 9.93923e-016 3.97569e-016 -3.18055e-015 3.7921 -1.552 1.4806 3.97569e-016 0 -3.18055e-015 4.9141 -1.269 0.35915 9.93923e-016 3.97569e-016 -3.18055e-015 3.1477 -1.685 0.84623 3.97569e-016 0 -3.18055e-015 -1.70688 20.075 5.0056 2.49001 -1.51614 -7.28977 -13.6458 -0.047012 -4.84902 -0.192978 -3.72222 -7.78057 -28.3255 -0.975903 2.28883 0.736966 0.131694 -10.9088 -22.1583 -0.530036 10.8316 -2.92302 -3.20919 -0.927675 -0.785995 0.111999 2.58168 -1.76556e-031 -1.59028e-015 -6.36111e-015 -0.3601 -0.878005 4.2331 -3.53113e-031 -3.18055e-015 -6.36111e-015 -0.9571 1.114 1.76948 -1.76556e-031 -1.59028e-015 -6.36111e-015 -4.1246 0.487 4.1451 -3.53113e-031 -3.18055e-015 -6.36111e-015 -3.40521 -1.45401 2.7682 -0 0 3.18055e-015 -5.6954 0.209991 2.1184 -3.53113e-031 -3.18055e-015 -6.36111e-015 -3.9766 -1.53999 2.3863 -0 0 3.18055e-015 -2.09559 0.65999 -0.38939 -1.76556e-031 -1.59028e-015 -6.36111e-015 -5.0395 -0.089997 2.49707 -3.53113e-031 -3.18055e-015 -6.36111e-015 -3.7921 -1.552 1.4806 -0 0 3.18055e-015 -4.9141 -1.269 0.35915 -3.53113e-031 -3.18055e-015 -6.36111e-015 -3.1477 -1.685 0.84623 -0 0 3.18055e-015 8.367 -8.2066 0.59823 -5.15623 -4.22727 1.25986 2.19232 -43.463 -0.493181 4.92094 13.5976 -10.4298 0.733257 -45.8593 -2.64513 0.560989 -14.3496 4.36359 -8.367 -8.2066 0.59823 -0.803367 0.794656 4.17551 -2.19233 -43.463 -0.493108 -0.616234 11.2589 17.5652 -0.733256 -45.8593 -2.64514 -12.9053 -5.70766 -21.9289 
